<svg width="90" height="109" viewBox="0 0 90 109" fill="none" xmlns="http://www.w3.org/2000/svg">
<path d="M37.8703 28.0926C37.8721 28.5391 37.8296 28.9576 37.7757 29.4862C37.7757 29.4865 37.7757 29.4868 37.7757 29.4871C37.768 29.5626 37.7599 29.6404 37.7519 29.7209C37.687 30.3685 37.6109 31.21 37.5673 32.4789C37.519 33.8809 37.3443 34.994 37.1766 35.6737C37.1454 35.8005 37.1282 35.9317 37.1125 36.2627C37.1023 36.4797 37.093 36.7732 37.0796 37.1967C37.0724 37.4219 37.0642 37.684 37.0539 37.9909C37.02 39.0068 37.0306 40.5989 37.0405 42.066C37.0465 42.9564 37.0523 43.8009 37.0475 44.4423C37.0405 45.3804 37.0092 46.2856 36.9749 47.2696C36.9435 48.1708 36.9096 49.1382 36.8904 50.2575C36.8756 51.1163 36.7486 51.9507 36.6068 52.7986C36.5888 52.9065 36.5706 53.0149 36.5522 53.1233C36.4257 53.8716 36.2962 54.6365 36.222 55.4637C36.0898 56.938 36.1444 58.1146 36.2049 59.4173C36.2286 59.9268 36.2532 60.4557 36.2678 61.0292C36.2909 61.9363 36.2862 63.2403 36.2797 64.5497C36.2791 64.6612 36.2787 64.7729 36.2782 64.8843C36.2782 64.8849 36.2782 64.8854 36.2782 64.886C36.272 66.0845 36.266 67.2609 36.2794 68.1239C36.3007 69.4954 36.3511 70.0114 36.3932 70.4417C36.4091 70.6035 36.4238 70.7533 36.4353 70.9318C36.4767 71.5748 36.469 72.5456 36.4613 73.5295C36.4613 73.5333 36.4613 73.537 36.4613 73.5408C36.46 73.7041 36.3188 73.8359 36.146 73.8352C35.9732 73.8344 35.8341 73.7013 35.8353 73.538C35.8394 73.0168 35.8434 72.5082 35.8405 72.0528C35.6921 72.0292 35.5797 71.9066 35.5808 71.7596C35.5837 71.3917 35.4718 70.2647 35.2891 68.5011C35.262 68.6219 35.2357 68.7231 35.2106 68.8118C35.1812 68.9158 35.156 68.9956 35.1343 69.0641C35.0892 69.207 35.0594 69.3021 35.0376 69.4708C35.0127 69.8617 35.0076 70.476 35.0025 71.1225C35.0012 71.2857 34.8603 71.4175 34.6875 71.4168C34.5148 71.416 34.3756 71.2829 34.3769 71.1197C34.3769 71.1165 34.3769 71.1133 34.3769 71.1101C34.3819 70.4698 34.387 69.8358 34.4135 69.4275C34.4202 69.3236 34.4282 69.2341 34.4355 69.1669C34.4413 69.1132 34.4491 69.0462 34.4593 69.0089C34.4606 69.004 34.4633 68.9945 34.4675 68.9833C34.4676 68.9831 34.4677 68.9829 34.4678 68.9827C34.4701 68.9764 34.4818 68.9443 34.5072 68.9101C34.5123 68.9031 34.5238 68.8881 34.5423 68.8706C34.5437 68.8661 34.5451 68.8616 34.5465 68.8571C34.5663 68.7943 34.5865 68.7302 34.6061 68.6608C34.6825 68.3899 34.7789 67.9608 34.881 67.0672C34.9749 66.2453 35.017 64.8559 35.0177 63.1222C35.0048 63.2394 34.9923 63.3568 34.9802 63.474C34.9499 63.7692 34.9223 64.0657 34.896 64.3624C34.8859 64.476 34.8761 64.5881 34.8664 64.7024C34.8507 64.8862 34.8353 65.0706 34.8203 65.255C34.8101 65.3795 34.8001 65.5043 34.7901 65.629C34.7901 65.6293 34.7901 65.6296 34.7901 65.6299C34.7761 65.8029 34.7621 65.9764 34.7477 66.1512C34.7423 66.2124 34.7371 66.2728 34.7321 66.3329C34.7121 66.5718 34.6926 66.8065 34.6549 67.0767C34.6486 67.1096 34.6406 67.1453 34.6338 67.1719C34.6267 67.2006 34.6195 67.2281 34.6122 67.2542C34.6057 67.2772 34.5991 67.2991 34.5929 67.3201C34.5921 67.3229 34.5913 67.3257 34.5905 67.3285C34.5836 67.3521 34.5773 67.3745 34.5713 67.3961C34.5653 67.4177 34.5595 67.4385 34.5545 67.459C34.5545 67.4591 34.5545 67.4593 34.5545 67.4595C34.5493 67.4809 34.5455 67.4971 34.5411 67.5198C34.5355 67.5482 34.5312 67.5727 34.527 67.6023C34.5229 67.631 34.5192 67.6609 34.516 67.691C34.5128 67.7212 34.51 67.752 34.5075 67.7831C34.5049 67.8144 34.5026 67.8461 34.5005 67.8781C34.4984 67.91 34.4965 67.9424 34.4947 67.975C34.4928 68.0075 34.4909 68.0404 34.4892 68.0735C34.485 68.1497 34.4504 68.2227 34.3915 68.2763C34.3326 68.3299 34.2548 68.3598 34.1742 68.3594C34.0936 68.359 34.0162 68.3285 33.9581 68.2744C33.9001 68.2202 33.8665 68.1469 33.8635 68.0707C33.8628 68.05 33.8619 68.0291 33.8611 68.0082C33.8606 67.9958 33.8603 67.9832 33.8599 67.9707C33.8587 67.9371 33.8574 67.9032 33.8565 67.869C33.8556 67.8349 33.8551 67.8005 33.8547 67.7657C33.8543 67.7308 33.8542 67.6954 33.8547 67.6595C33.8552 67.6237 33.8562 67.5871 33.858 67.5499C33.8598 67.5137 33.8628 67.4723 33.8666 67.4353C33.8693 67.4083 33.8738 67.3749 33.8779 67.3471C33.8822 67.3181 33.8869 67.2896 33.8919 67.2621C33.8969 67.2345 33.9022 67.2078 33.9072 67.1824C33.9077 67.1796 33.9082 67.1769 33.9087 67.1742C33.9131 67.1517 33.9174 67.1299 33.9212 67.1094C33.9255 67.0864 33.9291 67.0647 33.9322 67.0441C33.9357 67.0213 33.9371 67.0075 33.9386 66.9906C33.9487 66.7665 33.9466 66.4894 33.9447 66.2253C33.9445 66.1921 33.9443 66.1591 33.9441 66.1264C33.9426 65.9529 33.9408 65.7798 33.9389 65.6068C33.9376 65.481 33.9362 65.3551 33.935 65.2291C33.9332 65.0436 33.9317 64.8575 33.9307 64.6717C33.9301 64.5562 33.9297 64.4429 33.9295 64.3277C33.9289 64.0271 33.9297 63.7254 33.9334 63.4233C33.9372 63.1217 33.9437 62.8182 33.9548 62.5144C33.9659 62.2119 33.9824 61.8975 34.0076 61.594C34.0264 61.3708 34.0592 61.142 34.093 60.9304C34.1113 60.8166 34.1298 60.7052 34.1483 60.5955C34.1484 60.5951 34.1485 60.5947 34.1486 60.5944C34.1648 60.498 34.1809 60.4029 34.1962 60.3085C34.2291 60.106 34.2584 59.9071 34.2832 59.7083C34.3079 59.5097 34.3281 59.312 34.3436 59.1128C34.3589 58.9152 34.37 58.7142 34.3769 58.5151C34.3837 58.3151 34.3865 58.1188 34.3863 57.9124C34.3857 57.6411 34.3801 57.3716 34.3735 57.095C34.3667 56.8204 34.3583 56.5436 34.3497 56.2661C34.3467 56.1691 34.3439 56.0719 34.3408 55.9746C34.3408 55.9742 34.3408 55.9738 34.3408 55.9735C34.3352 55.7934 34.3295 55.613 34.3241 55.4324C34.3157 55.1536 34.3077 54.874 34.3012 54.5933C34.2947 54.3127 34.2897 54.0304 34.2877 53.7467C34.286 53.4629 34.2871 53.1714 34.2972 52.8786C34.306 52.6174 34.3177 52.3541 34.3293 52.0967C34.3323 52.0287 34.3354 51.9607 34.3384 51.8928C34.3527 51.5702 34.3641 51.258 34.3662 50.9492C34.3685 50.6407 34.3621 50.3323 34.3485 50.0212C34.3349 49.7109 34.3146 49.3968 34.2902 49.0801C34.2656 48.7621 34.2373 48.4482 34.2063 48.1278C34.1754 47.81 34.1422 47.4906 34.1071 47.1674C34.0876 46.9877 34.0698 46.7965 34.0546 46.6159C34.0392 46.4335 34.0257 46.2523 34.0131 46.0734C34.008 46.0008 34.0031 45.9286 33.9981 45.8568C33.9909 45.7522 33.9839 45.6485 33.9765 45.5464C33.964 45.3742 33.9506 45.2061 33.935 45.0428C33.9193 44.8796 33.9011 44.7212 33.8788 44.5682C33.8557 44.4099 33.8322 44.2793 33.7985 44.1232C33.7337 43.743 33.7138 43.5074 33.6914 43.2456C33.687 43.194 33.6823 43.1413 33.6774 43.0864C33.6523 42.7725 33.6335 42.4589 33.6194 42.1493C33.6052 41.8368 33.5957 41.5292 33.5901 41.2176C33.5846 40.909 33.5832 40.5983 33.5855 40.2887C33.5878 39.9796 33.5938 39.6711 33.6035 39.3618C33.6132 39.0527 33.6271 38.7372 33.6438 38.4343C33.6535 38.2592 33.6663 38.0733 33.6795 37.9005C33.689 37.7759 33.699 37.6531 33.7088 37.5327C33.7128 37.4835 33.7168 37.4346 33.7207 37.3862C33.7342 37.2193 33.7466 37.0571 33.7561 36.9003C33.7656 36.7436 33.7723 36.5919 33.7747 36.4435C33.7772 36.2948 33.7754 36.1494 33.7692 36.0038C33.7627 35.853 33.7539 35.7277 33.7378 35.5675C33.7272 35.4632 33.7165 35.361 33.7058 35.2591C33.6897 35.1066 33.6733 34.9551 33.6563 34.8026C33.6393 34.6502 33.622 34.4997 33.6038 34.3485C33.598 34.2999 33.5918 34.2486 33.5858 34.1998C33.5672 34.0491 33.5481 33.9002 33.5278 33.7514C33.5076 33.6029 33.4865 33.4557 33.4641 33.3092C33.4415 33.162 33.4181 33.0174 33.3926 32.8698C33.3493 32.619 33.3292 32.379 33.3157 32.1688C33.3024 31.956 33.295 31.7572 33.288 31.5638C33.2866 31.5275 33.2853 31.4913 33.284 31.455C33.2785 31.299 33.2732 31.1455 33.2669 30.9942C33.2591 30.8079 33.2499 30.6249 33.2388 30.4413C33.2279 30.2594 33.2151 30.0756 33.2001 29.8946C33.1848 29.712 33.1684 29.5373 33.1482 29.3491C33.1284 29.1629 33.1025 28.9738 33.0743 28.7666C33.0464 28.5612 33.0177 28.3457 32.9925 28.1275C32.9673 27.9095 32.9456 27.688 32.9285 27.4681C32.9112 27.2478 32.8982 27.0268 32.8891 26.8088C32.8799 26.5896 32.8745 26.3718 32.872 26.1551C32.8695 25.9388 32.8699 25.7155 32.8729 25.5064C32.8777 25.1679 32.8846 24.8309 32.8921 24.4933C32.8997 24.1575 32.9082 23.8207 32.9172 23.4846C32.9261 23.1492 32.9355 22.8133 32.9452 22.478C32.955 22.1425 32.965 21.8071 32.9751 21.4722C32.9774 21.3981 32.9796 21.324 32.9819 21.25C32.9898 20.9891 32.9977 20.7283 33.0054 20.4686C33.0055 20.4669 33.0056 20.4651 33.0057 20.4633C33.0155 20.129 33.025 19.8008 33.0331 19.4693C33.036 19.3476 33.0388 19.2307 33.0411 19.1119C33.0433 18.9929 33.0452 18.8762 33.0466 18.7584C33.0479 18.6405 33.0487 18.5232 33.0487 18.4077C33.0487 18.291 33.048 18.1772 33.046 18.0624C33.0442 17.9572 33.041 17.8527 33.0377 17.7385C33.0374 17.7281 33.0371 17.7177 33.0368 17.7073C33.0332 17.5823 33.0309 17.4402 33.0325 17.3081C33.0375 16.9583 33.0398 16.6173 33.0395 16.2702C33.0393 15.9229 33.0366 15.5764 33.0328 15.227C33.0314 15.0905 33.0296 14.9534 33.0279 14.8163C33.0254 14.603 33.0229 14.3889 33.0209 14.1741C33.0177 13.8208 33.0162 13.4667 33.0182 13.1103C33.0202 12.7553 33.0258 12.398 33.0356 12.0422C33.0453 11.6868 33.059 11.3283 33.0765 10.9745C33.096 10.5803 33.1175 10.1883 33.1399 9.79461C33.1624 9.40154 33.186 9.00825 33.2101 8.61671C33.2343 8.22373 33.2592 7.83176 33.2846 7.43966C33.3101 7.04732 33.3361 6.65524 33.3627 6.26288C33.3787 6.02806 33.3949 5.79331 33.4113 5.55845C33.3966 5.43419 33.3822 5.31506 33.3685 5.20047C33.2677 4.35368 33.1949 3.74142 33.1448 2.93367C33.1372 2.85631 33.1264 2.79337 33.1134 2.7168C33.1109 2.70219 33.1084 2.68669 33.1058 2.67089C33.089 2.57081 33.0714 2.45588 33.0603 2.296C33.0381 1.97705 33.0429 1.48818 33.1891 0.856437C33.226 0.696854 33.3926 0.595307 33.5614 0.629702C33.6798 0.653882 33.7678 0.73864 33.797 0.842073C33.8171 0.650977 33.8381 0.460395 33.859 0.270305C33.8673 0.19443 33.9062 0.123198 33.9679 0.0725801C34.0297 0.0219914 34.109 -0.00389416 34.1895 0.000475416C34.2699 0.00484641 34.3454 0.0392824 34.4004 0.0962395C34.4552 0.153176 34.485 0.227882 34.4837 0.304104C34.4801 0.506308 34.4765 0.707828 34.4739 0.909389C34.4713 1.11112 34.4698 1.3119 34.469 1.51327C34.4682 1.71458 34.4683 1.91583 34.469 2.11771C34.4698 2.3188 34.4709 2.52029 34.4727 2.72215C34.4744 2.92528 34.4769 3.12459 34.4794 3.32715C34.481 3.44851 34.4825 3.57133 34.4843 3.6919C34.4849 3.73684 34.4857 3.78069 34.4864 3.82456C34.487 3.86042 34.4874 3.89646 34.4879 3.93356C34.4941 4.32385 34.5009 4.71787 34.5084 5.10836C34.5158 5.5007 34.5237 5.89264 34.5319 6.28457C34.5401 6.67671 34.5489 7.06852 34.5578 7.4605C34.5668 7.85228 34.576 8.24384 34.5856 8.63614C34.5953 9.027 34.6051 9.41944 34.6158 9.81094C34.6241 10.1138 34.6329 10.414 34.6424 10.7148C34.6585 10.8332 34.6738 10.9504 34.6885 11.066C34.7312 11.4026 34.7873 11.7397 34.8429 12.0718C34.8152 11.4808 34.7721 11.006 34.7309 10.554C34.7254 10.4934 34.7198 10.4332 34.7144 10.3731C34.6592 9.76047 34.6125 9.16859 34.6228 8.37251C34.6524 6.10837 34.6739 4.79555 34.7141 3.9775C34.7543 3.15961 34.8139 2.80818 34.9323 2.4802C35.0997 2.01676 35.1949 1.12228 35.1984 0.672796C35.1997 0.509516 35.3409 0.377721 35.5137 0.378462C35.6865 0.37925 35.8256 0.512303 35.8244 0.675612C35.8206 1.15023 35.7239 2.11814 35.5247 2.66976C35.4359 2.91545 35.3787 3.19798 35.3391 4.00341C35.2995 4.80894 35.2783 6.10966 35.2488 8.37814C35.2388 9.14558 35.2833 9.71516 35.3379 10.3213C35.3432 10.3807 35.3489 10.4406 35.3544 10.501C35.3544 10.5014 35.3544 10.5018 35.3544 10.5021C35.4051 11.0589 35.4605 11.6652 35.485 12.4828C35.5414 14.3671 35.6509 16.9019 35.7127 17.5036C35.7248 17.6217 35.7384 17.7359 35.7526 17.8563C35.8073 18.3184 35.8733 18.8764 35.9171 20.1337C35.9267 20.4088 35.9323 20.7309 35.9348 21.0824C36.019 21.6099 36.0972 22.122 36.1436 22.5673C36.1836 22.9516 36.2573 23.306 36.338 23.6494C36.3612 23.7483 36.3855 23.8478 36.4097 23.9471C36.468 24.1867 36.5263 24.4264 36.5714 24.66C36.6074 24.8462 36.6506 25.0412 36.6963 25.2473C36.8626 25.9979 37.062 26.8975 37.0646 28.0698C37.0674 29.3124 37.0314 30.3763 36.9963 31.2939C37.0369 30.6201 37.0856 30.0998 37.129 29.6665C37.1372 29.5848 37.1452 29.5064 37.1528 29.431C37.207 28.8984 37.2463 28.5112 37.2447 28.0963C37.2368 26.1141 37.1837 25.3707 37.0304 24.5319C36.9901 24.311 36.9363 24.0674 36.8785 23.8049C36.7628 23.2803 36.6306 22.6802 36.555 22.0355C36.4845 21.435 36.3806 20.7634 36.2705 20.0518C36.2705 20.0515 36.2705 20.0512 36.2705 20.0509C36.249 19.9119 36.2273 19.7712 36.2055 19.6293C36.0728 18.7641 35.9393 17.8541 35.8552 16.9682C35.8462 16.8734 35.8338 16.7599 35.8195 16.6296C35.7369 15.8775 35.5919 14.5571 35.6849 12.9447C35.7053 12.5905 35.7486 12.2225 35.7981 11.8026C35.8132 11.6746 35.829 11.5418 35.8448 11.4032C35.9128 10.8045 35.985 10.0772 36.0285 9.10877C36.0644 8.30953 36.0816 7.33546 36.0996 6.324C36.1085 5.82578 36.1177 5.31849 36.1292 4.81854C36.164 3.30834 36.219 1.92419 36.2742 0.542669C36.2742 0.542387 36.2742 0.542106 36.2742 0.541824C36.2807 0.378614 36.4262 0.250769 36.5989 0.256504C36.7715 0.262298 36.9063 0.399251 36.8998 0.562385C36.8446 1.94472 36.7895 3.32464 36.7549 4.8298C36.7435 5.32216 36.7344 5.82548 36.7256 6.32175C36.7074 7.33813 36.6901 8.32574 36.6538 9.13243C36.6096 10.1173 36.536 10.858 36.4671 11.4648C36.4505 11.611 36.4342 11.7484 36.4189 11.8789C36.3699 12.2942 36.329 12.6395 36.3096 12.9754C36.2196 14.5366 36.3588 15.8071 36.4414 16.562C36.4561 16.6959 36.4688 16.8136 36.4784 16.9138C36.5608 17.7823 36.6921 18.6784 36.8247 19.5428C36.8463 19.6831 36.8677 19.8226 36.8891 19.9611C36.8892 19.9614 36.8893 19.9617 36.8894 19.9619C36.9995 20.6734 37.1052 21.3571 37.1769 21.9688C37.2497 22.5896 37.3697 23.1311 37.4818 23.6376C37.542 23.9094 37.5997 24.1711 37.6469 24.4296C37.8095 25.3195 37.8624 26.1041 37.8703 28.0926ZM33.7668 1.13753C33.6884 1.53033 33.6718 1.85036 33.6771 2.0887C33.6949 1.88629 33.7136 1.68436 33.7329 1.48228C33.7439 1.36727 33.7552 1.25239 33.7668 1.13753ZM35.3095 21.1305C35.2993 21.0669 35.289 21.0028 35.2787 20.9384C35.2836 21.116 35.2881 21.2937 35.2927 21.4711C35.2983 21.6888 35.3036 21.9066 35.3089 22.1242C35.3109 21.7782 35.3115 21.4428 35.3095 21.1305ZM36.4387 28.0726C36.4362 26.9671 36.2537 26.1409 36.0889 25.396C36.0415 25.1814 35.9956 24.9734 35.9559 24.7676C35.9394 24.6823 35.9212 24.597 35.9019 24.511C35.8921 25.0117 35.8818 25.4719 35.8732 25.8486C35.8476 26.9728 35.7943 27.6126 35.7474 28.1748C35.7339 28.3375 35.7209 28.4938 35.7093 28.6534C35.7303 28.7854 35.7511 28.9224 35.7694 29.0609C35.7953 29.2549 35.8201 29.4645 35.8411 29.664C35.8623 29.8642 35.8813 30.0677 35.8973 30.2676C35.9134 30.4691 35.9268 30.6687 35.9385 30.8675C35.9495 31.0545 35.9588 31.2409 35.9678 31.4212C35.9683 31.4316 35.9688 31.4419 35.9693 31.4522C35.9789 31.6428 35.9881 31.8283 36.0007 31.9986C36.0138 32.1721 36.0291 32.3163 36.0523 32.4442C36.0812 32.604 36.109 32.768 36.1347 32.9301C36.1605 33.0924 36.1846 33.254 36.2071 33.4151C36.2296 33.5766 36.2506 33.7364 36.2705 33.8967C36.277 33.9486 36.2836 34.0028 36.2898 34.0542C36.2926 34.0779 36.2955 34.1015 36.2983 34.1252C36.3005 33.8116 36.3038 33.486 36.309 33.1495C36.3164 32.6634 36.3369 32.1444 36.3593 31.5719C36.3976 30.5953 36.4418 29.463 36.4387 28.0726ZM36.3542 38.8784C36.3525 38.7421 36.3476 38.5425 36.3413 38.285C36.3398 38.2241 36.3381 38.1599 36.3365 38.0926C36.3363 38.0942 36.3363 38.0958 36.3361 38.0974C36.3202 38.2642 36.3063 38.4182 36.2934 38.5844C36.2706 38.8807 36.251 39.1685 36.2342 39.4592C36.2174 39.7511 36.2036 40.0421 36.1927 40.3335C36.1818 40.6253 36.1739 40.918 36.1692 41.208C36.1645 41.501 36.1627 41.7897 36.1649 42.0812C36.1656 42.174 36.1668 42.2672 36.1683 42.3603C36.184 42.1524 36.197 41.9366 36.2107 41.7086C36.2216 41.5265 36.2331 41.3365 36.2467 41.1368C36.252 41.0603 36.26 40.9678 36.2693 40.8599C36.3064 40.4322 36.3647 39.761 36.3542 38.8784ZM36.3407 44.6857C36.3449 44.7533 36.3486 44.8206 36.3517 44.8871C36.3605 45.0763 36.3655 45.2608 36.3694 45.4417C36.3721 45.5687 36.374 45.6942 36.3761 45.818C36.377 45.8702 36.378 45.9223 36.3789 45.974C36.3804 46.0605 36.3822 46.1464 36.3841 46.2317C36.4029 45.6336 36.4174 45.0489 36.4219 44.4395C36.422 44.4315 36.4218 44.4234 36.4219 44.4153C36.3943 44.5075 36.3672 44.5976 36.3407 44.6857Z" fill="black"/>
<path d="M32.7772 69.6022C33.1826 69.9562 33.543 70.3101 33.9387 70.7026C34.0271 70.7881 34.1155 70.8755 34.2046 70.9645C34.2049 70.9648 34.2052 70.9651 34.2056 70.9654C34.2871 71.0469 34.3691 71.13 34.4519 71.2141C34.7493 71.5157 35.0749 71.8564 35.3942 72.1543C35.5484 72.2994 35.7134 72.4341 35.7789 72.4842C35.8079 72.5095 35.8089 72.5064 35.706 72.4845C35.6112 72.464 35.3549 72.4339 35.0814 72.5198C34.8116 72.6012 34.662 72.7451 34.679 72.7367C34.7419 72.7062 35.0932 72.3061 35.3489 72.0043C35.6207 71.6859 35.8906 71.3706 36.1462 71.0825C36.6534 70.5108 37.1082 70.0387 37.4643 69.7007C37.6013 69.5691 37.7213 69.4362 38.0226 69.0606C38.2144 68.8223 38.4777 68.4878 38.8553 68.0142C39.0587 67.759 39.2875 67.4734 39.5705 67.123C40.235 66.3008 41.1558 65.1245 42.1228 63.9064C42.4722 63.4659 42.8398 63.0043 43.194 62.5616C43.9869 61.5705 44.7457 60.6328 45.3301 59.9277C46.1816 58.9007 47.0262 57.9268 47.9489 56.8679C48.7952 55.8969 49.6963 54.8676 50.7345 53.6557C51.5357 52.7203 52.3872 51.9022 53.2747 51.066C53.3887 50.9584 53.5005 50.8536 53.6133 50.748C54.3933 50.0164 55.1956 49.2645 56.0082 48.4157C57.4603 46.8987 58.4996 45.5847 59.6502 44.1317C60.0965 43.5678 60.5699 42.9709 61.0819 42.3441C61.9012 41.3415 63.0993 39.9363 64.3103 38.5204C64.4132 38.4 64.5163 38.2792 64.6193 38.1588C64.6198 38.1582 64.6203 38.1576 64.6209 38.157C65.7282 36.8627 66.8163 35.5918 67.6002 34.6491C68.8475 33.1492 69.2842 32.5583 69.6478 32.0657C69.7846 31.8805 69.9112 31.7088 70.0669 31.508C70.6284 30.7842 71.5276 29.7391 72.4397 28.679C72.4431 28.675 72.4466 28.6709 72.45 28.6668C72.6015 28.4908 72.8305 28.4395 72.9614 28.5523C73.0923 28.6651 73.0756 28.8995 72.9242 29.0755C72.4408 29.6374 71.97 30.1846 71.5523 30.6799C71.6437 30.8017 71.6163 31.0073 71.4802 31.1655C71.1402 31.5607 70.186 32.8547 68.7019 34.8822C68.8338 34.7688 68.9472 34.6762 69.0481 34.5962C69.1667 34.5021 69.259 34.4325 69.3385 34.3724C69.5042 34.2472 69.6143 34.1637 69.7863 33.9953C70.1654 33.5878 70.7345 32.9268 71.334 32.2298C71.4856 32.0538 71.7145 32.0021 71.8452 32.115C71.9762 32.2276 71.9594 32.4621 71.808 32.6382C71.805 32.6417 71.8021 32.6452 71.7991 32.6486C71.2054 33.3388 70.6181 34.0214 70.2218 34.4465C70.121 34.5546 70.0327 34.6461 69.9654 34.7141C69.9116 34.7684 69.844 34.8357 69.8021 34.8694C69.7965 34.8739 69.7858 34.8823 69.7722 34.8917C69.772 34.8919 69.7717 34.892 69.7715 34.8922C69.7639 34.8975 69.7256 34.9245 69.6747 34.9452C69.6644 34.9494 69.6418 34.9583 69.6116 34.9653C69.6063 34.9692 69.6011 34.9732 69.5958 34.9772C69.5228 35.0325 69.4483 35.089 69.3694 35.1516C69.0607 35.3966 68.5949 35.7954 67.6928 36.6992C66.866 37.527 65.5539 39.0058 63.9599 40.8831C64.0771 40.765 64.1944 40.6462 64.3114 40.5269C64.6054 40.2274 64.902 39.9206 65.193 39.6185C65.305 39.5023 65.4155 39.3873 65.5279 39.2699C65.709 39.0809 65.8907 38.8907 66.0723 38.7001C66.1949 38.5715 66.3165 38.4437 66.4388 38.3153C66.4391 38.315 66.4393 38.3147 66.4396 38.3144C66.6092 38.1363 66.7795 37.9576 66.9516 37.7773C67.0121 37.7144 67.0717 37.6522 67.131 37.5903C67.3674 37.343 67.5962 37.1038 67.8739 36.8353C67.9089 36.8038 67.9479 36.7703 67.9776 36.7459C68.0093 36.7194 68.0402 36.6943 68.0698 36.6708C68.0959 36.6501 68.1211 36.6306 68.1452 36.6118C68.1484 36.6093 68.1516 36.6068 68.1548 36.6042C68.1817 36.5832 68.2073 36.5629 68.2318 36.5434C68.2562 36.5239 68.2798 36.5051 68.3025 36.4861C68.3026 36.4859 68.3028 36.4857 68.303 36.4855C68.3266 36.4657 68.3445 36.4506 68.3688 36.4288C68.3993 36.4016 68.4251 36.3778 68.4556 36.3484C68.4852 36.3199 68.5156 36.2899 68.5459 36.2592C68.5762 36.2284 68.6064 36.1972 68.637 36.1651C68.6676 36.1331 68.6986 36.1004 68.7295 36.0672C68.7605 36.034 68.7916 36.0002 68.823 35.9662C68.8543 35.9322 68.886 35.8978 68.9178 35.8632C68.9909 35.7835 69.0845 35.7269 69.1787 35.707C69.2729 35.6872 69.3597 35.7053 69.4207 35.7578C69.4818 35.8104 69.5126 35.8937 69.5071 35.9899C69.5014 36.0861 69.4596 36.1872 69.3918 36.2715C69.3734 36.2944 69.3549 36.3175 69.3362 36.3407C69.3251 36.3544 69.3139 36.3682 69.3027 36.3819C69.2727 36.419 69.2425 36.4565 69.2119 36.494C69.1812 36.5314 69.15 36.569 69.1183 36.6068C69.0866 36.6447 69.0542 36.6831 69.0206 36.7218C68.9872 36.7603 68.9527 36.7994 68.917 36.8385C68.8822 36.8768 68.8417 36.9197 68.8047 36.9573C68.7778 36.9849 68.7436 37.0181 68.7149 37.0456C68.6849 37.0743 68.655 37.1021 68.6258 37.1287C68.5966 37.1553 68.568 37.1808 68.5408 37.2052C68.5379 37.2078 68.535 37.2104 68.5321 37.213C68.508 37.2346 68.4848 37.2553 68.463 37.2751C68.4386 37.2972 68.4158 37.3184 68.3945 37.3387C68.3709 37.3611 68.3571 37.3751 68.3404 37.3925C68.1264 37.6286 67.8745 37.9283 67.6317 38.2169C67.6013 38.253 67.571 38.2889 67.5411 38.3245C67.3824 38.5136 67.2245 38.7022 67.0671 38.8904C66.9525 39.0274 66.8388 39.1634 66.7232 39.3014C66.5533 39.5041 66.383 39.7069 66.2129 39.9088C66.1072 40.0342 66.0035 40.157 65.898 40.2815C65.624 40.6052 65.3427 40.9353 65.0629 41.2592C64.7832 41.583 64.4998 41.9069 64.2111 42.23C63.9237 42.5518 63.6252 42.8782 63.3256 43.1926C63.1055 43.4232 62.8701 43.6501 62.6504 43.8571C62.5322 43.9683 62.4163 44.0765 62.3018 44.183C62.3014 44.1833 62.301 44.1837 62.3005 44.184C62.1992 44.2785 62.0992 44.3717 62.0006 44.4645C61.789 44.6633 61.584 44.8599 61.3832 45.0589C61.1833 45.2566 60.9854 45.4593 60.7902 45.6659C60.5966 45.8709 60.4039 46.0815 60.2169 46.2921C60.0301 46.5022 59.8451 46.7167 59.656 46.9407C59.4067 47.2366 59.167 47.5289 58.9173 47.8348C58.6693 48.1389 58.422 48.4449 58.1756 48.7501C58.0897 48.8565 58.003 48.9637 57.9154 49.0723C57.915 49.0727 57.9147 49.0731 57.9143 49.0735C57.7528 49.2738 57.5915 49.4738 57.4307 49.673C57.1832 49.9795 56.9328 50.2892 56.68 50.5994C56.4268 50.9101 56.1785 51.2129 55.9165 51.5274C55.6566 51.839 55.3912 52.1531 55.1169 52.4638C54.8694 52.7447 54.6197 53.024 54.3773 53.2949C54.3133 53.3665 54.2497 53.4376 54.1856 53.5092C53.8772 53.8547 53.5836 54.1873 53.3033 54.519C53.0189 54.855 52.7408 55.1975 52.4708 55.5418C52.1994 55.8878 51.9249 56.2483 51.6592 56.6052C51.3902 56.9663 51.1217 57.333 50.8588 57.6977C50.5945 58.0638 50.3259 58.4392 50.0647 58.8093C49.9171 59.0177 49.7545 59.242 49.6036 59.4482C49.4498 59.658 49.3023 59.8577 49.1462 60.0664C49.0839 60.1499 49.022 60.2325 48.961 60.3143C48.8719 60.4336 48.7841 60.5511 48.6986 60.6664C48.5566 60.8584 48.4105 61.0568 48.2756 61.2455C48.1402 61.4348 48.0128 61.6186 47.8947 61.7977C47.7689 61.9874 47.6677 62.1479 47.5539 62.34C47.2673 62.7925 47.0656 63.0711 46.8506 63.3704C46.8082 63.4294 46.7652 63.4896 46.7207 63.5522C46.4592 63.9133 46.1934 64.2706 45.9304 64.6185C45.6576 64.9785 45.4023 65.3107 45.1252 65.6652C45.0216 65.7979 44.9186 65.9289 44.8167 66.058C44.6458 66.2743 44.4778 66.4853 44.3133 66.6903C44.0351 67.0372 43.772 67.3608 43.4869 67.7082C43.2144 68.0395 42.9232 68.3902 42.6526 68.7118C42.489 68.9071 42.3257 69.0973 42.164 69.2858C42.0472 69.422 41.9343 69.5527 41.8259 69.6781C41.7831 69.7274 41.7343 69.7847 41.6898 69.8365C41.5326 70.0201 41.3933 70.1825 41.2466 70.3603C41.1039 70.5328 40.9749 70.6924 40.8435 70.8629C40.716 71.0282 40.5953 71.1921 40.4762 71.3617C40.3575 71.5314 40.2541 71.6848 40.1347 71.8725C40.0604 71.9903 39.9757 72.1227 39.9012 72.2413C39.7908 72.4176 39.6713 72.6072 39.5592 72.7883C39.4434 72.9744 39.3317 73.1559 39.2204 73.338C39.1869 73.3935 39.1447 73.4614 39.1087 73.5205C38.9986 73.7017 38.8871 73.8855 38.7727 74.0739C38.6638 74.2546 38.548 74.4451 38.4301 74.6361C38.3087 74.8315 38.1927 75.0192 38.0413 75.2392C37.7732 75.5903 37.4986 76.0724 36.5689 76.5118C36.4665 76.5559 36.3557 76.596 36.2488 76.6277C35.38 76.8849 34.6192 76.6834 34.1671 76.5066C34.0659 76.4671 33.9748 76.4271 33.8866 76.3853C33.5154 76.2074 33.2466 76.0285 33.0089 75.8638C32.7173 75.6593 32.4775 75.4704 32.2504 75.2903C32.0259 75.1118 31.8148 74.9402 31.6135 74.7813C31.4104 74.6208 31.222 74.4755 31.0228 74.3302C30.9863 74.3036 30.9497 74.2773 30.9128 74.2512C30.7415 74.1286 30.556 73.9974 30.3463 73.8462C30.1058 73.6749 29.8588 73.4976 29.594 73.2984C29.3523 73.1197 29.0943 72.921 28.8407 72.719C28.6009 72.5293 28.3548 72.3276 28.1071 72.1186C27.8732 71.9218 27.6394 71.7196 27.4014 71.5089C27.1633 71.2983 26.9393 71.0959 26.7148 70.8892C26.344 70.5477 26.0153 70.2407 25.652 69.9004C25.3032 69.5733 24.9578 69.2473 24.6034 68.9117C24.2638 68.5896 23.9088 68.2521 23.5644 67.9233C23.2246 67.5987 22.8692 67.2588 22.529 66.9322C22.4535 66.8597 22.3778 66.7871 22.3018 66.7141C22.0361 66.459 21.7583 66.1923 21.4976 65.9414C21.4958 65.9396 21.494 65.9378 21.4922 65.9361C21.1527 65.6096 20.808 65.2783 20.4705 64.9552C20.346 64.8361 20.2259 64.7213 20.1032 64.6047C19.9804 64.4879 19.8592 64.3732 19.7362 64.2574C19.6122 64.1408 19.4918 64.0282 19.3717 63.9168C19.2503 63.8044 19.1313 63.695 19.01 63.5852C18.8989 63.4845 18.7873 63.3854 18.6654 63.2767C18.6542 63.2667 18.6431 63.2568 18.6319 63.2469C18.4975 63.1271 18.3495 62.9928 18.2131 62.8638C17.8534 62.5229 17.4949 62.1863 17.1356 61.8522C16.7748 61.5166 16.4094 61.1798 16.0443 60.8445C15.9015 60.7133 15.7576 60.5815 15.6138 60.4495C15.3901 60.2441 15.1649 60.0373 14.9406 59.8304C14.571 59.4895 14.202 59.1464 13.8328 58.798C13.4647 58.4507 13.0986 58.1 12.7353 57.7459C12.3718 57.3917 12.0113 57.0345 11.6552 56.6761C11.2572 56.2754 10.871 55.8828 10.4748 55.4791C10.081 55.0775 9.69466 54.6812 9.30223 54.2779C8.91187 53.8766 8.52455 53.4768 8.13478 53.0735C7.74976 52.6747 7.35714 52.2674 6.97201 51.866C6.74363 51.6278 6.50899 51.3831 6.27688 51.1405C6.13813 51.0291 6.00566 50.9233 5.87903 50.8219C4.93232 50.0625 4.25177 49.5155 3.38527 48.7582C3.29947 48.6868 3.22684 48.6324 3.13899 48.5666C3.12224 48.554 3.10459 48.5406 3.08653 48.527C2.97205 48.4409 2.84339 48.3423 2.67382 48.1956C2.31973 47.8878 1.82661 47.4095 1.27824 46.68C1.1467 46.5024 1.14953 46.2738 1.30402 46.1883C1.41176 46.1276 1.56247 46.1505 1.68501 46.2277C1.51143 46.0331 1.31398 45.814 1.138 45.6154C1.06661 45.535 1.02213 45.4382 1.01463 45.3451C1.00716 45.2521 1.03682 45.1704 1.09697 45.1167C1.15718 45.063 1.24349 45.0414 1.33842 45.0566C1.43329 45.0718 1.52904 45.1229 1.60587 45.1987C1.80743 45.3979 2.02671 45.6138 2.22181 45.8048C2.42327 46.0019 2.63228 46.2045 2.84244 46.407C3.04327 46.6006 3.24908 46.7975 3.46015 46.9984C3.67548 47.2034 3.87287 47.3904 4.08312 47.5886C4.29109 47.7848 4.51047 47.9906 4.71285 48.18C4.8372 48.2964 4.96415 48.4152 5.09002 48.5326C5.1369 48.5764 5.18295 48.619 5.22904 48.662C5.26672 48.6971 5.3046 48.7325 5.34374 48.769C5.75033 49.1475 6.15925 49.5266 6.56966 49.9059C6.97207 50.2776 7.39596 50.6687 7.7982 51.0382C8.2073 51.4143 8.62238 51.7948 9.03079 52.1684C9.44393 52.5465 9.85317 52.9201 10.2661 53.2962C10.6809 53.6742 11.0884 54.0445 11.5033 54.4203C11.8256 54.7123 12.1385 54.9944 12.4576 55.2814C12.5915 55.385 12.7237 55.4883 12.8541 55.5906C13.232 55.8869 13.619 56.1732 14.0023 56.4564C13.3693 55.9007 12.8491 55.4714 12.3516 55.0602C12.285 55.0053 12.2189 54.9507 12.1532 54.8964C11.4807 54.3398 10.8385 53.7994 10.0189 53.0119C7.70188 50.7851 6.35458 49.4739 5.54559 48.649C4.72701 47.8144 4.40525 47.4245 4.15357 47.0204C3.79205 46.4438 2.93216 45.4882 2.48429 45.0522C2.31256 44.8852 2.27592 44.6539 2.39646 44.5301C2.51723 44.4065 2.74952 44.437 2.92114 44.6039C3.39151 45.0618 4.33479 46.0994 4.7558 46.7764C4.94879 47.0833 5.19499 47.3978 6.00357 48.222C6.79898 49.0331 8.13385 50.332 10.4542 52.5621C11.2441 53.321 11.861 53.8406 12.5268 54.3918C12.5918 54.4456 12.6575 54.4997 12.7238 54.5544C12.7242 54.5548 12.7246 54.5552 12.725 54.5555C13.3374 55.0616 14.0023 55.6101 14.8676 56.3874C16.8597 58.1783 19.5725 60.554 20.2399 61.0885C20.3699 61.1926 20.5003 61.2951 20.6354 61.4011C21.1549 61.8083 21.7796 62.2986 23.123 63.4793C23.4167 63.7373 23.7535 64.0404 24.1261 64.3799C24.7293 64.8207 25.3284 65.2648 25.8174 65.6497C26.2539 65.9953 26.6675 66.2736 27.0841 66.5444C27.205 66.6232 27.3266 66.7011 27.4472 66.7783C27.7387 66.9649 28.021 67.1428 28.3037 67.3384C28.5253 67.491 28.758 67.6436 28.9997 67.8007C29.9079 68.3971 30.9894 69.1055 32.2222 70.1871C32.6637 70.5739 33.0827 70.9424 33.456 71.2687C34.3064 72.0143 35.0196 72.7359 35.4369 73.006C34.9766 72.6729 34.4108 72.0608 33.9793 71.6276C33.8948 71.542 33.8127 71.4592 33.7325 71.3793C33.664 71.3111 33.5973 71.2453 33.531 71.1808C33.1111 70.7643 32.7633 70.4206 32.368 70.0755C30.269 68.2331 29.4586 67.5568 28.4759 66.8748C28.2107 66.6885 27.9314 66.5071 27.6131 66.2953C26.9821 65.8766 26.2628 65.3979 25.5425 64.8395C24.8616 64.3102 24.091 63.7423 23.2771 63.1406C23.2768 63.1403 23.2765 63.14 23.2762 63.1397C23.1163 63.0214 22.9529 62.9 22.7896 62.7788C21.8028 62.0476 20.7557 61.2588 19.7808 60.4673C19.676 60.3822 19.5492 60.2812 19.4033 60.165C18.5662 59.4992 17.0923 58.3243 15.4833 56.6903C15.1295 56.331 14.7787 55.943 14.3762 55.4975C14.2539 55.362 14.1272 55.2214 13.9945 55.0753C13.4213 54.4439 12.7156 53.6817 11.7461 52.7084C10.9394 51.8991 9.95277 50.9441 8.91665 49.9382C8.41604 49.452 7.89098 48.9414 7.38584 48.4458C5.84846 46.9376 4.47558 45.5516 3.0936 44.1456C3.09331 44.1453 3.09301 44.145 3.09272 44.1447C2.92722 43.9764 2.8997 43.7478 3.02524 43.6289C3.15093 43.5103 3.38228 43.5462 3.54793 43.7145C4.9274 45.1181 6.29728 46.5012 7.8284 48.0033C8.32519 48.4907 8.84635 48.9975 9.34469 49.4815C10.3853 50.4918 11.3857 51.46 12.1992 52.2762C13.1854 53.2661 13.9038 54.0421 14.4842 54.6815C14.624 54.8355 14.7553 54.9809 14.8801 55.119C15.2783 55.5597 15.6065 55.9233 15.9421 56.2641C17.4994 57.8455 18.9173 58.9762 19.7563 59.644C19.9062 59.7634 20.0376 59.8682 20.1485 59.9583C21.1035 60.7337 22.1329 61.5092 23.1205 62.2415C23.2785 62.3582 23.4429 62.4808 23.6018 62.5984C23.6021 62.5986 23.6025 62.5988 23.6028 62.599C24.4182 63.2021 25.2021 63.7802 25.893 64.317C26.5873 64.8555 27.2411 65.2911 27.8424 65.6878C28.1723 65.9073 28.4823 66.1116 28.7811 66.3192C29.8307 67.0497 30.6747 67.7567 32.7772 69.6022ZM1.9648 46.5383C2.32524 46.9929 2.62758 47.3052 2.8825 47.5418C2.68373 47.327 2.49116 47.1168 2.30164 46.9083C2.18741 46.7836 2.07514 46.6603 1.9648 46.5383ZM23.753 64.8864C23.6795 64.8326 23.6053 64.7782 23.5306 64.7235C23.7208 64.8919 23.9094 65.0594 24.0964 65.2251C24.3222 65.4251 24.563 65.639 24.793 65.8429C24.4295 65.5067 24.0801 65.1846 23.753 64.8864ZM31.8119 70.6598C30.6473 69.6382 29.6409 68.976 28.7524 68.3958C28.485 68.2182 28.2505 68.0677 28.0038 67.8976C27.9027 67.8281 27.7998 67.7593 27.6948 67.69C28.2203 68.1806 28.6956 68.6242 29.0856 68.9872C30.2522 70.0721 30.9074 70.7231 31.4633 71.2736C31.6357 71.4428 31.7946 71.5988 31.9509 71.7499C32.0983 71.8501 32.2764 71.9766 32.4314 72.0854C32.4999 72.1337 32.5686 72.1821 32.6365 72.2298C32.8005 72.347 32.9659 72.4701 33.1233 72.5899C33.3519 72.7637 33.5804 72.9436 33.8005 73.1154C34.0232 73.2892 34.2408 73.4577 34.4548 73.6086C34.6567 73.7508 34.8565 73.8772 35.037 73.96C35.0473 73.9647 35.0572 73.9691 35.0674 73.9736C35.2565 74.0581 35.4061 74.0729 35.4732 74.0489C35.4875 74.0446 35.4998 74.0394 35.5115 74.0332C35.553 74.0103 35.6048 73.9633 35.6673 73.8849C35.7607 73.7671 35.8789 73.5931 35.9923 73.4148C36.1061 73.2359 36.2243 73.0432 36.3401 72.853C36.4553 72.6634 36.5736 72.4686 36.6916 72.2753C36.729 72.2138 36.7695 72.1476 36.8094 72.0831C36.8272 72.0541 36.8434 72.0272 36.8607 71.9989C36.5965 72.3538 36.3204 72.7254 36.0381 73.0788C35.8983 73.2531 35.7527 73.4258 35.6197 73.5583C35.4848 73.6988 35.3761 73.7449 35.4212 73.7153C35.448 73.7006 35.4405 73.714 35.323 73.661C34.8263 73.4364 34.0063 72.5829 33.05 71.7449C32.6766 71.4186 32.2572 71.0499 31.8119 70.6598ZM40.8987 66.5522C40.7768 66.7112 40.6157 66.9259 40.3887 67.2295C40.3364 67.2995 40.282 67.3728 40.2255 67.4486C40.227 67.4469 40.2284 67.4451 40.2299 67.4434C40.3843 67.2695 40.538 67.0938 40.6897 66.9195C40.9643 66.6034 41.2343 66.2898 41.5041 65.9736C41.7778 65.6527 42.0426 65.3397 42.3101 65.0204C42.468 64.8321 42.629 64.6387 42.7923 64.4412C42.8955 64.3166 42.9996 64.1903 43.1044 64.0626C43.3741 63.7337 43.6259 63.4238 43.8889 63.0948C43.9726 62.99 44.0568 62.8841 44.1368 62.7829C43.9427 62.9975 43.7302 63.2399 43.5198 63.4794C43.3542 63.6676 43.1673 63.8819 42.9805 64.0932C42.9086 64.1746 42.8209 64.2715 42.7199 64.3829C42.7198 64.383 42.7198 64.3831 42.7197 64.3831C42.3016 64.8475 41.6687 65.5485 40.8987 66.5522ZM46.0961 60.1085C46.1533 60.0323 46.2108 59.9565 46.2683 59.8816C46.4313 59.6693 46.5987 59.4581 46.7584 59.2582C46.8697 59.1189 46.9811 58.9806 47.0916 58.8434C47.1383 58.7855 47.185 58.7275 47.2314 58.6698C47.3091 58.5733 47.3864 58.4768 47.4635 58.3806C46.9008 59.032 46.3626 59.6625 45.8113 60.3276C45.8039 60.3365 45.7966 60.3456 45.7892 60.3546C45.8954 60.2686 45.9974 60.187 46.0961 60.1085Z" fill="black"/>
<path d="M34.1526 103.259C34.6954 103.257 35.2042 103.3 35.8469 103.354C35.8472 103.354 35.8476 103.354 35.8479 103.354C35.9397 103.362 36.0343 103.37 36.1321 103.378C36.9195 103.442 37.9425 103.519 39.4851 103.562C41.1895 103.611 42.5428 103.785 43.3691 103.953C43.5232 103.984 43.6827 104.001 44.0851 104.017C44.349 104.027 44.7057 104.036 45.2205 104.05C45.4944 104.057 45.8131 104.065 46.1862 104.076C47.4212 104.11 49.3568 104.099 51.1403 104.089C52.2227 104.083 53.2494 104.077 54.0292 104.082C55.1697 104.089 56.2701 104.12 57.4664 104.155C58.562 104.186 59.7381 104.22 61.0988 104.239C62.1428 104.254 63.1572 104.381 64.1881 104.523C64.3193 104.541 64.451 104.559 64.5829 104.577C65.4925 104.704 66.4224 104.833 67.428 104.908C69.2204 105.04 70.6508 104.985 72.2345 104.925C72.8539 104.901 73.4969 104.876 74.1942 104.862C75.2969 104.839 76.8823 104.843 78.4741 104.85C78.6096 104.85 78.7454 104.851 78.8809 104.851C78.8815 104.851 78.8822 104.851 78.8829 104.851C80.34 104.858 81.7701 104.864 82.8193 104.85C84.4866 104.829 85.1139 104.778 85.6371 104.736C85.8338 104.72 86.0158 104.706 86.2329 104.694C87.0146 104.653 88.1948 104.661 89.391 104.668C89.3956 104.668 89.4002 104.668 89.4047 104.668C89.6032 104.67 89.7635 104.811 89.7625 104.984C89.7616 105.156 89.5998 105.295 89.4013 105.294C88.7676 105.29 88.1493 105.286 87.5957 105.289C87.567 105.437 87.4179 105.55 87.2393 105.549C86.7919 105.546 85.422 105.658 83.2778 105.84C83.4247 105.868 83.5477 105.894 83.6555 105.919C83.782 105.948 83.879 105.974 83.9623 105.995C84.136 106.04 84.2516 106.07 84.4568 106.092C84.932 106.117 85.6788 106.122 86.4647 106.127C86.6632 106.128 86.8234 106.269 86.8225 106.442C86.8216 106.615 86.6598 106.754 86.4613 106.753C86.4574 106.753 86.4535 106.753 86.4496 106.753C85.6712 106.748 84.9004 106.743 84.404 106.716C84.2777 106.709 84.169 106.701 84.0873 106.694C84.022 106.688 83.9405 106.68 83.8952 106.67C83.8892 106.669 83.8777 106.666 83.8641 106.662C83.8638 106.662 83.8636 106.662 83.8634 106.662C83.8557 106.659 83.8167 106.648 83.775 106.622C83.7666 106.617 83.7483 106.606 83.7271 106.587C83.7216 106.586 83.7161 106.584 83.7106 106.583C83.6343 106.563 83.5563 106.543 83.472 106.523C83.1426 106.447 82.621 106.351 81.5346 106.248C80.5354 106.155 78.8463 106.113 76.7387 106.112C76.8811 106.125 77.0238 106.137 77.1664 106.149C77.5252 106.18 77.8857 106.207 78.2464 106.234C78.3845 106.244 78.5208 106.253 78.6597 106.263C78.8832 106.279 79.1074 106.294 79.3315 106.309C79.4829 106.319 79.6346 106.329 79.7862 106.339C79.7865 106.339 79.7869 106.339 79.7872 106.339C79.9976 106.353 80.2085 106.367 80.421 106.382C80.4954 106.387 80.5689 106.392 80.6419 106.397C80.9324 106.417 81.2177 106.437 81.5462 106.475C81.5862 106.481 81.6296 106.489 81.662 106.496C81.6968 106.503 81.7303 106.51 81.7619 106.517C81.7899 106.524 81.8165 106.53 81.8421 106.537C81.8455 106.537 81.8489 106.538 81.8523 106.539C81.8809 106.546 81.9083 106.552 81.9345 106.558C81.9607 106.564 81.986 106.57 82.0109 106.575C82.0111 106.575 82.0113 106.575 82.0116 106.575C82.0376 106.58 82.0573 106.584 82.0849 106.588C82.1194 106.594 82.1492 106.598 82.1852 106.603C82.22 106.607 82.2564 106.61 82.293 106.613C82.3297 106.617 82.3671 106.619 82.405 106.622C82.4429 106.625 82.4815 106.627 82.5204 106.629C82.5592 106.631 82.5986 106.633 82.6382 106.635C82.6778 106.637 82.7178 106.639 82.758 106.64C82.8507 106.644 82.9394 106.679 83.0046 106.738C83.0697 106.797 83.106 106.875 83.1056 106.955C83.1052 107.036 83.068 107.113 83.0022 107.171C82.9364 107.229 82.8473 107.263 82.7546 107.266C82.7294 107.267 82.7041 107.268 82.6786 107.268C82.6635 107.269 82.6483 107.269 82.6331 107.27C82.5922 107.271 82.551 107.272 82.5094 107.273C82.468 107.274 82.4261 107.274 82.3838 107.275C82.3413 107.275 82.2983 107.275 82.2547 107.275C82.2112 107.274 82.1667 107.273 82.1215 107.271C82.0774 107.27 82.0271 107.267 81.9821 107.263C81.9492 107.26 81.9087 107.256 81.8749 107.252C81.8397 107.247 81.805 107.243 81.7715 107.238C81.738 107.233 81.7056 107.227 81.6746 107.222C81.6713 107.222 81.668 107.221 81.6647 107.221C81.6373 107.216 81.6109 107.212 81.5859 107.208C81.558 107.204 81.5316 107.2 81.5065 107.197C81.4788 107.194 81.4621 107.192 81.4415 107.191C81.169 107.181 80.8322 107.183 80.5111 107.185C80.4707 107.185 80.4306 107.185 80.3909 107.185C80.18 107.187 79.9695 107.189 79.7592 107.191C79.6063 107.192 79.4532 107.193 79.3 107.195C79.0745 107.196 78.8483 107.198 78.6223 107.199C78.482 107.199 78.3442 107.2 78.2042 107.2C77.8387 107.201 77.4719 107.2 77.1047 107.196C76.738 107.192 76.369 107.186 75.9998 107.175C75.6319 107.164 75.2498 107.147 74.8807 107.122C74.6095 107.103 74.3313 107.07 74.074 107.036C73.9357 107.018 73.8003 107 73.6669 106.981C73.6664 106.981 73.666 106.981 73.6655 106.981C73.5484 106.965 73.4328 106.949 73.3179 106.933C73.0718 106.9 72.83 106.871 72.5883 106.846C72.3468 106.822 72.1065 106.801 71.8644 106.786C71.6241 106.771 71.3797 106.759 71.1378 106.753C70.8946 106.746 70.6559 106.743 70.405 106.743C70.0752 106.744 69.7476 106.749 69.4113 106.756C69.0775 106.763 68.741 106.771 68.4036 106.78C68.2856 106.783 68.1675 106.786 68.0492 106.789C68.0487 106.789 68.0483 106.789 68.0478 106.789C67.8289 106.794 67.6096 106.8 67.39 106.805C67.051 106.814 66.7111 106.822 66.37 106.828C66.0288 106.835 65.6856 106.84 65.3406 106.842C64.9956 106.844 64.6413 106.842 64.2853 106.832C63.9678 106.824 63.6477 106.812 63.3348 106.8C63.2521 106.797 63.1695 106.794 63.0869 106.791C62.6948 106.777 62.3151 106.765 61.9398 106.763C61.5646 106.761 61.1898 106.767 60.8115 106.781C60.4344 106.795 60.0524 106.815 59.6675 106.839C59.2808 106.864 58.8992 106.892 58.5098 106.923C58.1233 106.954 57.7351 106.987 57.3421 107.022C57.1237 107.042 56.8913 107.06 56.6717 107.075C56.4499 107.09 56.2297 107.104 56.0122 107.116C55.9239 107.122 55.8361 107.126 55.7489 107.131C55.6217 107.139 55.4956 107.146 55.3715 107.153C55.1621 107.166 54.9578 107.179 54.7593 107.195C54.5609 107.21 54.3683 107.228 54.1823 107.251C53.9898 107.274 53.8311 107.297 53.6413 107.331C53.179 107.396 52.8926 107.416 52.5743 107.438C52.5116 107.443 52.4476 107.447 52.3808 107.452C51.9992 107.477 51.6179 107.496 51.2416 107.51C50.8617 107.524 50.4877 107.534 50.1089 107.539C49.7338 107.545 49.3559 107.546 48.9796 107.544C48.6039 107.542 48.2288 107.536 47.8527 107.526C47.4769 107.516 47.0934 107.502 46.7251 107.486C46.5123 107.476 46.2862 107.463 46.0762 107.45C45.9248 107.441 45.7754 107.431 45.6291 107.421C45.5693 107.417 45.5098 107.413 45.451 107.409C45.2481 107.395 45.0508 107.383 44.8603 107.373C44.6698 107.364 44.4854 107.357 44.3049 107.355C44.1242 107.352 43.9473 107.354 43.7704 107.36C43.587 107.367 43.4347 107.376 43.24 107.392C43.1132 107.402 42.9889 107.413 42.8651 107.424C42.6796 107.44 42.4955 107.456 42.31 107.473C42.1248 107.49 41.9419 107.508 41.758 107.526C41.6989 107.532 41.6365 107.538 41.5772 107.544C41.3941 107.562 41.213 107.581 41.0321 107.602C40.8515 107.622 40.6727 107.643 40.4945 107.665C40.3156 107.688 40.1397 107.711 39.9603 107.737C39.6554 107.78 39.3636 107.8 39.1081 107.814C38.8495 107.827 38.6078 107.834 38.3725 107.842C38.3285 107.843 38.2844 107.844 38.2404 107.846C38.0506 107.851 37.864 107.856 37.6802 107.863C37.4536 107.87 37.2312 107.88 37.008 107.891C36.7868 107.902 36.5634 107.914 36.3434 107.929C36.1213 107.945 35.9089 107.961 35.6801 107.981C35.4538 108.001 35.2239 108.027 34.972 108.055C34.7224 108.083 34.4604 108.112 34.1951 108.137C33.93 108.162 33.6608 108.184 33.3935 108.201C33.1256 108.218 32.8569 108.231 32.5919 108.24C32.3254 108.25 32.0606 108.255 31.7971 108.258C31.5342 108.26 31.2627 108.26 31.0085 108.257C30.597 108.252 30.1873 108.245 29.7768 108.237C29.3687 108.23 28.9592 108.221 28.5506 108.212C28.1428 108.203 27.7345 108.194 27.3268 108.184C26.919 108.175 26.5112 108.164 26.1041 108.154C26.014 108.152 25.924 108.15 25.8339 108.148C25.5168 108.14 25.1998 108.132 24.884 108.124C24.8819 108.124 24.8797 108.124 24.8775 108.124C24.4711 108.114 24.0721 108.105 23.6691 108.096C23.5212 108.093 23.3791 108.091 23.2346 108.088C23.09 108.086 22.9481 108.084 22.8049 108.083C22.6615 108.082 22.5189 108.081 22.3786 108.081C22.2367 108.081 22.0984 108.082 21.9588 108.084C21.8308 108.085 21.7038 108.089 21.565 108.092C21.5523 108.092 21.5397 108.092 21.527 108.093C21.3751 108.096 21.2024 108.099 21.0418 108.097C20.6165 108.092 20.202 108.09 19.78 108.09C19.3577 108.09 18.9365 108.093 18.5117 108.097C18.3458 108.098 18.1791 108.1 18.0124 108.102C17.7531 108.104 17.4928 108.107 17.2317 108.109C16.8021 108.112 16.3717 108.113 15.9384 108.111C15.5068 108.109 15.0724 108.104 14.6399 108.094C14.2078 108.084 13.772 108.07 13.3418 108.053C12.8626 108.034 12.3861 108.012 11.9075 107.99C11.4296 107.967 10.9515 107.944 10.4755 107.919C9.99772 107.895 9.52119 107.87 9.0445 107.845C8.56753 107.819 8.09088 107.793 7.61388 107.767C7.32841 107.751 7.04302 107.735 6.7575 107.718C6.60643 107.733 6.4616 107.747 6.32229 107.761C5.29284 107.862 4.5485 107.935 3.56651 107.985C3.47247 107.992 3.39594 108.003 3.30285 108.016C3.28509 108.019 3.26625 108.021 3.24704 108.024C3.12537 108.041 2.98565 108.058 2.79128 108.069C2.40353 108.091 1.8092 108.087 1.04118 107.94C0.847176 107.904 0.723724 107.737 0.765538 107.568C0.794934 107.45 0.897976 107.362 1.02372 107.333C0.791402 107.312 0.559709 107.291 0.328614 107.271C0.236372 107.262 0.149774 107.223 0.0882368 107.162C0.0267352 107.1 -0.00473418 107.02 0.00057797 106.94C0.00589186 106.86 0.0477562 106.784 0.117 106.729C0.186219 106.674 0.27704 106.645 0.369704 106.646C0.615526 106.649 0.860517 106.653 1.10556 106.656C1.3508 106.658 1.59489 106.66 1.8397 106.66C2.08444 106.661 2.3291 106.661 2.57453 106.66C2.819 106.66 3.06396 106.659 3.30936 106.657C3.55631 106.655 3.79862 106.653 4.04487 106.65C4.19241 106.649 4.34172 106.647 4.4883 106.645C4.54293 106.645 4.59624 106.644 4.64958 106.643C4.69317 106.643 4.73699 106.642 4.78209 106.642C5.25657 106.635 5.73559 106.629 6.21031 106.621C6.68729 106.614 7.16378 106.606 7.64025 106.598C8.11698 106.589 8.59331 106.581 9.06984 106.572C9.54614 106.563 10.0222 106.554 10.4991 106.544C10.9743 106.534 11.4514 106.524 11.9273 106.514C12.2955 106.505 12.6605 106.497 13.0261 106.487C13.1701 106.471 13.3125 106.456 13.4531 106.441C13.8624 106.398 14.2722 106.342 14.6759 106.287C13.9574 106.314 13.3801 106.357 12.8306 106.399C12.7569 106.404 12.6838 106.41 12.6108 106.415C11.8659 106.47 11.1464 106.517 10.1786 106.507C7.42604 106.477 5.83002 106.456 4.83551 106.415C3.84118 106.375 3.41395 106.316 3.01522 106.197C2.4518 106.03 1.36437 105.935 0.817928 105.931C0.619426 105.93 0.459202 105.789 0.460102 105.616C0.46106 105.443 0.622815 105.304 0.821352 105.305C1.39835 105.309 2.57506 105.406 3.24567 105.605C3.54435 105.694 3.88783 105.751 4.86701 105.79C5.8463 105.83 7.4276 105.851 10.1854 105.881C11.1184 105.891 11.8109 105.846 12.5478 105.792C12.62 105.786 12.6928 105.781 12.7662 105.775C12.7667 105.775 12.7671 105.775 12.7676 105.775C13.4445 105.724 14.1816 105.669 15.1755 105.645C17.4663 105.588 20.5479 105.479 21.2794 105.417C21.423 105.405 21.5618 105.391 21.7081 105.377C22.27 105.322 22.9483 105.256 24.4769 105.212C24.8112 105.203 25.2029 105.197 25.6302 105.195C26.2714 105.11 26.894 105.032 27.4354 104.986C27.9026 104.946 28.3335 104.872 28.751 104.792C28.8711 104.768 28.9921 104.744 29.1129 104.72C29.4042 104.661 29.6956 104.603 29.9796 104.558C30.2059 104.522 30.443 104.479 30.6935 104.433C31.6061 104.267 32.6997 104.068 34.1249 104.065C35.6356 104.062 36.929 104.098 38.0445 104.133C37.2253 104.093 36.5929 104.044 36.066 104.001C35.9666 103.992 35.8714 103.984 35.7798 103.977C35.1323 103.923 34.6615 103.883 34.157 103.885C31.7474 103.893 30.8435 103.946 29.8238 104.099C29.5553 104.139 29.2591 104.193 28.94 104.251C28.3022 104.367 27.5727 104.499 26.7889 104.575C26.0589 104.645 25.2424 104.749 24.3773 104.859C24.3769 104.859 24.3766 104.859 24.3762 104.859C24.2072 104.88 24.0361 104.902 23.8636 104.924C22.8118 105.057 21.7055 105.19 20.6285 105.274C20.5133 105.283 20.3753 105.296 20.2169 105.31C19.3025 105.393 17.6973 105.538 15.737 105.445C15.3065 105.424 14.8591 105.381 14.3485 105.331C14.193 105.316 14.0316 105.3 13.863 105.285C13.1352 105.217 12.251 105.144 11.0737 105.101C10.102 105.065 8.91783 105.048 7.68819 105.03C7.0825 105.021 6.46577 105.012 5.85797 105C4.022 104.966 2.33927 104.91 0.659731 104.855C0.659389 104.855 0.659046 104.855 0.658704 104.855C0.460287 104.849 0.304864 104.703 0.311835 104.531C0.318879 104.358 0.485375 104.223 0.6837 104.23C2.36423 104.285 4.04182 104.34 5.87166 104.375C6.47023 104.386 7.08212 104.395 7.68545 104.404C8.92108 104.422 10.1217 104.439 11.1024 104.476C12.2998 104.52 13.2002 104.594 13.938 104.662C14.1157 104.679 14.2827 104.695 14.4413 104.711C14.9462 104.76 15.366 104.801 15.7744 104.82C17.6724 104.91 19.2169 104.771 20.1347 104.688C20.2975 104.673 20.4406 104.661 20.5624 104.651C21.6182 104.569 22.7076 104.437 23.7585 104.305C23.929 104.283 24.0987 104.262 24.267 104.24C24.2674 104.24 24.2677 104.24 24.268 104.24C25.1329 104.13 25.9641 104.024 26.7078 103.953C27.4626 103.88 28.1208 103.76 28.7366 103.648C29.067 103.588 29.3852 103.53 29.6995 103.483C30.7813 103.32 31.7351 103.267 34.1526 103.259ZM1.38292 107.363C1.86044 107.441 2.24951 107.458 2.53926 107.452C2.29319 107.435 2.0477 107.416 1.80204 107.397C1.66221 107.386 1.52255 107.374 1.38292 107.363ZM25.6887 105.82C25.6113 105.83 25.5334 105.84 25.4552 105.851C25.6711 105.846 25.8871 105.841 26.1027 105.837C26.3675 105.831 26.6322 105.826 26.8968 105.821C26.476 105.819 26.0683 105.818 25.6887 105.82ZM34.1283 104.691C32.7843 104.693 31.7799 104.876 30.8743 105.041C30.6135 105.088 30.3606 105.134 30.1104 105.174C30.0066 105.19 29.9029 105.208 29.7984 105.228C30.4071 105.237 30.9665 105.248 31.4246 105.256C32.7912 105.282 33.5691 105.335 34.2526 105.382C34.4503 105.396 34.6404 105.409 34.8343 105.42C34.9948 105.399 35.1614 105.378 35.3298 105.36C35.5656 105.334 35.8204 105.309 36.0629 105.288C36.3064 105.267 36.5538 105.248 36.7967 105.232C37.0417 105.216 37.2845 105.203 37.5261 105.191C37.7534 105.18 37.98 105.171 38.1993 105.162C38.2118 105.161 38.2244 105.161 38.2369 105.16C38.4687 105.151 38.6941 105.141 38.9012 105.129C39.1121 105.116 39.2874 105.1 39.4429 105.077C39.6372 105.048 39.8365 105.021 40.0336 104.995C40.2309 104.969 40.4274 104.945 40.6233 104.922C40.8195 104.9 41.0139 104.879 41.2088 104.859C41.2718 104.853 41.3377 104.846 41.4002 104.84C41.429 104.837 41.4578 104.834 41.4865 104.831C41.1052 104.829 40.7095 104.826 40.3004 104.821C39.7094 104.813 39.0784 104.793 38.3825 104.77C37.1952 104.732 35.8187 104.688 34.1283 104.691ZM47.2651 104.775C47.0994 104.777 46.8567 104.782 46.5436 104.788C46.4696 104.79 46.3916 104.791 46.3098 104.793C46.3117 104.793 46.3137 104.793 46.3156 104.793C46.5184 104.809 46.7056 104.823 46.9076 104.836C47.2678 104.859 47.6178 104.879 47.9712 104.895C48.326 104.912 48.6798 104.926 49.0341 104.937C49.3888 104.948 49.7446 104.956 50.0973 104.96C50.4534 104.965 50.8044 104.967 51.1587 104.965C51.2716 104.964 51.3849 104.963 51.4981 104.961C51.2453 104.945 50.9829 104.932 50.7057 104.919C50.4844 104.908 50.2534 104.896 50.0106 104.883C49.9177 104.878 49.8052 104.87 49.674 104.86C49.154 104.823 48.3381 104.765 47.2651 104.775ZM54.3251 104.789C54.4073 104.785 54.4891 104.781 54.5699 104.778C54.8 104.769 55.0243 104.764 55.2441 104.76C55.3985 104.757 55.5512 104.755 55.7016 104.753C55.7651 104.753 55.8285 104.752 55.8913 104.751C55.9965 104.749 56.1009 104.747 56.2046 104.745C55.4774 104.727 54.7666 104.712 54.0258 104.708C54.016 104.708 54.0062 104.708 53.9964 104.708C54.1085 104.735 54.218 104.762 54.3251 104.789Z" fill="black"/>
</svg>
